<svg width="199" height="199" viewBox="0 0 199 199" fill="none" xmlns="http://www.w3.org/2000/svg">
<g clip-path="url(#clip0)">
<path d="M123.989 129.418C123.554 129.655 123.076 129.767 122.601 129.767C121.847 129.767 121.101 129.476 120.542 128.916L100.354 108.729C99.802 108.177 99.4988 107.431 99.4988 106.665C99.4988 107.431 99.1956 108.177 98.6437 108.729L78.4561 128.916C77.8964 129.476 77.1501 129.767 76.3961 129.767C75.9219 129.767 75.4438 129.655 75.0085 129.418L24.6797 102.14V157.209C24.6793 157.31 24.6844 157.41 24.6945 157.51C24.6988 157.552 24.7069 157.593 24.7127 157.635C24.7201 157.686 24.726 157.737 24.7361 157.787C24.7485 157.85 24.7656 157.912 24.7819 157.973C24.7897 158.002 24.7955 158.031 24.8041 158.059C24.8231 158.122 24.8461 158.183 24.869 158.244C24.8791 158.271 24.8876 158.299 24.8989 158.326C24.9215 158.381 24.9475 158.433 24.9732 158.487C24.9891 158.519 25.0035 158.552 25.0206 158.585C25.0439 158.628 25.0695 158.67 25.0948 158.711C25.1189 158.751 25.1418 158.792 25.1675 158.831C25.1889 158.864 25.213 158.894 25.2359 158.926C25.2689 158.972 25.3016 159.017 25.3373 159.062C25.3572 159.086 25.3793 159.109 25.3999 159.132C25.4411 159.18 25.4823 159.227 25.5266 159.272C25.5499 159.296 25.5748 159.317 25.5989 159.339C25.6432 159.381 25.6868 159.422 25.7338 159.461C25.7793 159.499 25.8275 159.533 25.8749 159.568C25.9029 159.589 25.9289 159.61 25.9577 159.63C26.0412 159.687 26.1279 159.739 26.2173 159.787L98.1124 198.649C98.5454 198.883 99.0219 199 99.4988 199C99.9757 199 100.453 198.883 100.885 198.649L172.78 159.787C172.869 159.739 172.956 159.686 173.04 159.63C173.068 159.61 173.095 159.589 173.122 159.568C173.17 159.533 173.218 159.499 173.263 159.461C173.31 159.422 173.354 159.381 173.398 159.339C173.422 159.317 173.447 159.296 173.47 159.272C173.514 159.227 173.556 159.18 173.597 159.132C173.617 159.109 173.64 159.086 173.659 159.062C173.695 159.018 173.728 158.972 173.761 158.926C173.784 158.894 173.808 158.864 173.829 158.831C173.855 158.792 173.878 158.752 173.902 158.711C173.927 158.669 173.953 158.628 173.976 158.585C173.993 158.552 174.008 158.519 174.024 158.487C174.049 158.433 174.075 158.381 174.098 158.326C174.109 158.299 174.118 158.271 174.128 158.244C174.151 158.183 174.174 158.122 174.193 158.059C174.201 158.031 174.207 158.002 174.215 157.973C174.231 157.912 174.248 157.85 174.261 157.787C174.271 157.737 174.277 157.686 174.284 157.635C174.29 157.593 174.298 157.552 174.302 157.51C174.312 157.41 174.317 157.31 174.317 157.209V102.14L123.989 129.418Z" fill="#DBE6E6"/>
<path d="M97.9726 25.6698C98.781 25.2348 99.3368 24.4377 99.469 23.5282C99.4884 23.3886 99.5001 23.2487 99.5001 23.1084C99.5001 23.2487 99.5117 23.3886 99.5312 23.5243C99.6633 24.4338 100.219 25.2271 101.028 25.6659L172.932 64.5331C173.371 64.7706 173.845 64.8829 174.32 64.8829C173.845 64.8829 173.371 64.9999 172.932 65.2366L101.028 104.104C100.219 104.54 99.6633 105.336 99.5312 106.245C99.5117 106.386 99.5001 106.526 99.5001 106.665C99.5001 106.526 99.4884 106.386 99.469 106.245C99.3368 105.336 98.781 104.54 97.9726 104.104L26.0681 65.2366C25.6834 65.031 25.2714 64.914 24.8594 64.8868C25.2714 64.8596 25.6834 64.7434 26.0681 64.537L97.9726 25.6698Z" fill="#C7DEDE"/>
<path d="M197.197 41.357C197.329 42.2665 197.03 43.1834 196.381 43.8364L176.387 64.0209C175.828 64.588 175.077 64.8834 174.319 64.8834C173.845 64.8834 173.371 64.7711 172.932 64.5336L101.027 25.6663C100.219 25.2275 99.6632 24.4342 99.5311 23.5247C99.5117 23.3887 99.5 23.2492 99.5 23.1089C99.5 23.105 99.5 23.105 99.5 23.1011C99.5 22.3358 99.8032 21.5888 100.355 21.0415L120.543 0.853457C121.452 -0.0599234 122.855 -0.261645 123.99 0.352458L195.7 39.2197C196.509 39.6543 197.061 40.4475 197.197 41.357Z" fill="#DBE5E5"/>
<path d="M196.381 85.9333C197.03 86.5863 197.329 87.5039 197.197 88.4134C197.061 89.319 196.509 90.1116 195.7 90.5511L123.99 129.418C123.555 129.655 123.077 129.767 122.603 129.767C121.849 129.767 121.102 129.476 120.543 128.917L100.355 108.729C99.8032 108.177 99.5 107.431 99.5 106.665C99.5 106.526 99.5117 106.386 99.5311 106.245C99.6632 105.336 100.219 104.539 101.027 104.104L172.932 65.2365C173.371 64.9998 173.845 64.8828 174.319 64.8828C175.077 64.8828 175.828 65.1821 176.387 65.7461L196.381 85.9333Z" fill="#EBF4F4"/>
<path d="M196.38 85.9343L176.387 65.747C175.827 65.1831 175.077 64.8838 174.319 64.8838C173.845 64.8838 173.371 65.0008 172.931 65.2375L165.34 69.3434C165.779 69.1067 166.253 68.9897 166.727 68.9897C167.485 68.9897 168.235 69.289 168.795 69.853L188.788 90.0402C189.438 90.6932 189.737 91.6108 189.605 92.5203C189.469 93.4259 188.917 94.2184 188.108 94.658L195.7 90.5521C196.508 90.1125 197.06 89.32 197.196 88.4144C197.328 87.5049 197.029 86.5873 196.38 85.9343Z" fill="#C7DEDE"/>
<path d="M99.5009 23.1014C99.5009 23.1053 99.5009 23.1053 99.5009 23.1092C99.5009 23.2495 99.4892 23.3894 99.4698 23.5289C99.3376 24.4384 98.7818 25.2356 97.9734 25.6705L26.0689 64.5378C25.6841 64.7442 25.2722 64.8604 24.8602 64.8876C24.7785 64.8837 24.693 64.8837 24.6114 64.8876C23.8768 64.8724 23.1578 64.577 22.6136 64.029L2.62031 43.8406C1.97122 43.1876 1.67195 42.2707 1.8041 41.3612C1.94013 40.4556 2.49205 39.6624 3.30049 39.2235L75.0106 0.356276C76.1455 -0.257826 77.5486 -0.0522185 78.4581 0.857276L98.6458 21.0453C99.1977 21.5976 99.497 22.34 99.5009 23.1014Z" fill="#EBF4F4"/>
<path d="M99.4698 106.245C99.4892 106.386 99.5009 106.526 99.5009 106.665C99.5009 107.431 99.1977 108.177 98.6458 108.729L78.4581 128.917C77.8984 129.476 77.1522 129.767 76.3982 129.767C75.924 129.767 75.4459 129.655 75.0106 129.418L3.30049 90.5512C2.49205 90.1116 1.94013 89.3191 1.8041 88.4135C1.67195 87.504 1.97122 86.5863 2.62031 85.9333L22.6136 65.7461C23.1578 65.198 23.8768 64.9027 24.6114 64.8867C24.6347 64.8906 24.6581 64.8906 24.6814 64.8906C24.7397 64.8906 24.798 64.8906 24.8602 64.8867C25.2722 64.9139 25.6841 65.0309 26.0689 65.2365L97.9734 104.104C98.7818 104.54 99.3376 105.336 99.4698 106.245Z" fill="#F4FBFB"/>
<path d="M24.8581 64.8867C24.7959 64.8906 24.7376 64.8906 24.6793 64.8906C24.656 64.8906 24.6327 64.8906 24.6094 64.8867C24.691 64.8828 24.7765 64.8828 24.8581 64.8867Z" fill="#E2AE83"/>
<path d="M173.476 102.596C173.438 102.669 173.399 102.696 173.359 102.66H173.358L162.657 108.46V163.525C162.657 163.627 162.652 163.727 162.642 163.826C162.638 163.868 162.629 163.909 162.624 163.951C162.616 164.002 162.61 164.053 162.6 164.103C162.588 164.167 162.571 164.228 162.554 164.29C162.547 164.318 162.541 164.347 162.532 164.375C162.513 164.438 162.49 164.499 162.467 164.56C162.457 164.587 162.449 164.615 162.437 164.642C162.415 164.697 162.389 164.75 162.363 164.803C162.348 164.836 162.333 164.868 162.316 164.901C162.292 164.944 162.267 164.986 162.241 165.028C162.218 165.068 162.194 165.108 162.169 165.148C162.147 165.18 162.123 165.211 162.1 165.242C162.067 165.288 162.035 165.334 161.999 165.378C161.979 165.402 161.957 165.425 161.936 165.449C161.895 165.496 161.854 165.543 161.81 165.588C161.786 165.612 161.761 165.633 161.738 165.655C161.693 165.697 161.65 165.739 161.603 165.777C161.557 165.815 161.509 165.849 161.462 165.884C161.434 165.905 161.408 165.926 161.379 165.946C161.36 165.959 161.339 165.969 161.32 165.982L172.781 159.787C172.87 159.738 172.957 159.686 173.04 159.63C173.069 159.61 173.096 159.588 173.123 159.568C173.171 159.533 173.219 159.498 173.264 159.461C173.311 159.422 173.355 159.38 173.399 159.338C173.423 159.316 173.448 159.295 173.471 159.271C173.515 159.227 173.556 159.18 173.598 159.132C173.618 159.108 173.64 159.086 173.66 159.061C173.696 159.017 173.729 158.972 173.762 158.925C173.785 158.894 173.809 158.864 173.83 158.831C173.856 158.791 173.879 158.751 173.903 158.711C173.928 158.669 173.954 158.627 173.977 158.584C173.994 158.552 174.009 158.519 174.024 158.486C174.05 158.433 174.076 158.38 174.099 158.325C174.11 158.298 174.119 158.271 174.129 158.243C174.152 158.183 174.174 158.122 174.194 158.059C174.202 158.031 174.208 158.002 174.216 157.973C174.232 157.911 174.249 157.85 174.262 157.786C174.272 157.736 174.277 157.685 174.285 157.634C174.291 157.593 174.299 157.552 174.303 157.509C174.313 157.41 174.318 157.309 174.318 157.209V102.14L173.476 102.596Z" fill="#C7DEDE"/>
<path d="M98.6437 108.729L78.4561 128.916C77.8964 129.476 77.1501 129.767 76.3961 129.767C75.9219 129.767 75.4438 129.655 75.0085 129.418L24.6797 102.14V157.209C24.6793 157.31 24.6844 157.41 24.6945 157.51C24.6988 157.552 24.7069 157.593 24.7127 157.635C24.7201 157.686 24.726 157.737 24.7361 157.787C24.7485 157.85 24.7656 157.912 24.7819 157.973C24.7897 158.002 24.7955 158.031 24.8041 158.059C24.8231 158.122 24.8461 158.183 24.869 158.244C24.8791 158.271 24.8876 158.299 24.8989 158.326C24.9215 158.381 24.9475 158.433 24.9732 158.487C24.9891 158.519 25.0035 158.552 25.0206 158.585C25.0439 158.628 25.0695 158.67 25.0948 158.711C25.1189 158.751 25.1418 158.792 25.1675 158.831C25.1889 158.864 25.213 158.894 25.2359 158.926C25.2689 158.972 25.3016 159.017 25.3373 159.062C25.3572 159.086 25.3793 159.109 25.3999 159.132C25.4411 159.18 25.4823 159.227 25.5266 159.272C25.5499 159.296 25.5748 159.317 25.5989 159.339C25.6432 159.381 25.6868 159.422 25.7338 159.461C25.7793 159.499 25.8275 159.533 25.8749 159.568C25.9029 159.589 25.9289 159.61 25.9577 159.63C26.0412 159.687 26.1279 159.739 26.2173 159.787L98.1124 198.649C98.5454 198.883 99.0219 199 99.4988 199V106.665C99.4988 107.431 99.1956 108.177 98.6437 108.729Z" fill="#EBF4F4"/>
</g>
<defs>
<clipPath id="clip0">
<rect width="199" height="199" fill="white"/>
</clipPath>
</defs>
</svg>
