<svg width="809" height="142" viewBox="0 0 809 142" fill="none" xmlns="http://www.w3.org/2000/svg">
<path d="M196.766 81.0033H194.015L187.485 97.844H191.143L192.226 94.864H198.606L199.666 97.844H203.323L196.766 81.0033ZM193.212 92.0966L195.48 85.968L197.673 92.0966H193.213H193.212Z" fill="#2B2A29"/>
<path d="M184.061 97.8407V81H172.887V88.6407C172.887 93.918 171.602 94.9073 169.81 94.9073H169.308V97.8407H170.692C174.427 97.8407 176.267 95.9 176.267 88.8287V83.9313H180.555V97.8407H184.061Z" fill="#2B2A29"/>
<path d="M160.525 81.0033H157.773L151.244 97.844H154.901L155.984 94.864H162.365L163.423 97.844H167.082L160.526 81.0033H160.525ZM156.971 92.0966L159.237 85.968L161.432 92.0966H156.971Z" fill="#2B2A29"/>
<path d="M148.239 97.8407V81H144.784L140.117 90.108L135.427 81H131.974V97.8407H135.476V88.024L138.932 94.41H141.303L144.732 88.024V97.8407H148.239Z" fill="#2B2A29"/>
<path d="M122.002 81.0033H119.25L112.72 97.844H116.377L117.459 94.864H123.841L124.9 97.844H128.557L122.002 81.0033ZM118.447 92.0966L120.714 85.968L122.909 92.0966H118.447Z" fill="#2B2A29"/>
<path d="M100.142 97.8407V89.0427L106.446 97.8407H110.734L104.1 88.8993L110.129 81H105.943L100.142 88.9967V81H96.6357V97.8407H100.142Z" fill="#2B2A29"/>
<path d="M77.661 81.0033H70.702V97.844H74.2071V91.5046H77.661C81.1412 91.5046 83.5893 89.328 83.5893 86.2533C83.5893 83.1766 81.1156 81.0033 77.661 81.0033ZM77.484 88.55H74.2071V83.938H77.484C79.0471 83.938 80.0828 84.86 80.0828 86.2546C80.0828 87.6506 79.0471 88.55 77.484 88.55Z" fill="#2B2A29"/>
<path d="M66.5927 83.9333V81H53.7051V83.9333H58.3974V97.8447H61.904V83.9333H66.5927Z" fill="#2B2A29"/>
<path d="M47.3162 81.0033H44.5649L38.0343 97.844H41.6926L42.7743 94.864H49.1557L50.2154 97.844H53.8724L47.315 81.0033H47.3162ZM43.7618 92.0966L46.0304 85.968L48.2243 92.0966H43.7631H43.7618Z" fill="#2B2A29"/>
<path d="M35.4045 97.8407V94.9073H27.0834V90.8173H34.17V87.884H27.0834V83.9313H35.4045V81H23.5767V97.8407H35.4045Z" fill="#2B2A29"/>
<path d="M19.8863 83.9333V81H7V83.9333H11.6922V97.8447H15.1977V83.9333H19.8863Z" fill="#2B2A29"/>
<path d="M10.2674 117.909V123.524H8.85125V117.909H6.9552V116.725H12.1635V117.909H10.2674Z" fill="#2B2A29"/>
<path d="M16.5825 123.524L16.1565 122.321H13.5749L13.1392 123.524H11.6581L14.2996 116.725H15.4086L18.0611 123.524H16.5825ZM14.8908 118.731L13.9703 121.203H15.777L14.8908 118.731Z" fill="#2B2A29"/>
<path d="M20.8742 117.909V123.524H19.4579V117.909H17.5619V116.725H22.769V117.909H20.8742Z" fill="#2B2A29"/>
<path d="M27.1892 123.524L26.7632 122.321H24.1817L23.7459 123.524H22.2648L24.9063 116.725H26.0153L28.6678 123.524H27.1892ZM25.4976 118.731L24.577 121.203H26.3838L25.4976 118.731Z" fill="#2B2A29"/>
<path d="M32.2172 116.728C33.6126 116.728 34.6114 117.607 34.6114 118.847C34.6114 120.088 33.6212 120.966 32.2172 120.966H30.8218V123.527H29.4043V116.728H32.2172ZM32.1438 119.774C32.7778 119.774 33.1976 119.409 33.1976 118.845C33.1976 118.284 32.7778 117.913 32.1438 117.913H30.8206V119.773H32.1438V119.774Z" fill="#2B2A29"/>
<path d="M38.0369 123.58C37.2413 123.58 36.5889 123.315 36.0797 122.835C35.3453 122.147 35.3673 121.296 35.3673 120.123C35.3673 118.95 35.3465 118.099 36.0797 117.411C36.5889 116.936 37.2413 116.67 38.0369 116.67C39.3931 116.67 40.4508 117.394 40.7066 118.815H39.2671C39.1275 118.273 38.7579 117.851 38.0455 117.851C37.6587 117.851 37.3441 117.985 37.1372 118.205C36.863 118.49 36.781 118.815 36.781 120.123C36.781 121.429 36.863 121.755 37.1372 122.043C37.3441 122.261 37.6587 122.393 38.0455 122.393C38.7579 122.393 39.1275 121.974 39.2671 121.428H40.7066C40.4495 122.852 39.3834 123.577 38.0369 123.577V123.58Z" fill="#2B2A29"/>
<path d="M41.6151 123.524V116.725H43.0314V119.953L45.3754 116.725H47.0695L44.6312 119.915L47.3143 123.524H45.5798L43.0314 119.974V123.524H41.6151Z" fill="#2B2A29"/>
<path d="M52.0932 123.524V119.16L49.2706 123.524H48.0073V116.725H49.4236V121.078L52.2463 116.725H53.507V123.524H52.0932Z" fill="#2B2A29"/>
<path d="M58.9124 123.525V119.161L56.091 123.525H54.8253V116.726H56.2428V121.077L59.0654 116.726H60.3262V123.525H58.9124ZM57.5868 116.364C56.7813 116.364 55.9784 116.031 55.9355 115H56.9356C56.9662 115.419 57.222 115.593 57.588 115.593C57.9565 115.593 58.2098 115.419 58.2404 115H59.2404C59.1976 116.031 58.3934 116.364 57.5892 116.364H57.5868Z" fill="#2B2A29"/>
<path d="M65.327 117.909V123.524H63.9095V116.725H68.4764V117.909H65.327Z" fill="#2B2A29"/>
<path d="M74.4298 120.373C74.4298 121.261 74.4198 122.149 73.708 122.837C73.1983 123.333 72.5341 123.582 71.7504 123.582C70.9609 123.582 70.291 123.325 69.7821 122.837C69.078 122.157 69.0659 121.147 69.0659 120.411V119.849C69.0659 118.493 69.2218 117.951 69.7821 117.415C70.291 116.93 70.9609 116.67 71.7504 116.67C72.5256 116.67 73.1976 116.929 73.708 117.415C74.2134 117.903 74.4298 118.551 74.4298 119.649V120.373ZM72.6566 118.216C72.4337 117.977 72.1163 117.854 71.7504 117.854C71.3823 117.854 71.0527 117.978 70.8299 118.216C70.5046 118.55 70.4861 119.189 70.4861 120.032V120.373C70.4861 121.082 70.4946 121.721 70.8299 122.035C71.0769 122.266 71.3823 122.397 71.7504 122.397C72.1163 122.397 72.4337 122.275 72.6566 122.035C72.9513 121.721 73.0125 121.387 73.0125 120C73.0125 118.883 72.9427 118.513 72.6566 118.216Z" fill="#2B2A29"/>
<path d="M77.9891 123.58C77.1933 123.58 76.5412 123.315 76.0315 122.835C75.2976 122.147 75.3197 121.296 75.3197 120.123C75.3197 118.95 75.2983 118.099 76.0315 117.411C76.5412 116.936 77.1933 116.67 77.9891 116.67C79.3452 116.67 80.4052 117.394 80.6572 118.815H79.2192C79.0783 118.273 78.7103 117.851 77.9977 117.851C77.6133 117.851 77.2965 117.985 77.0879 118.205C76.8153 118.49 76.7334 118.815 76.7334 120.123C76.7334 121.429 76.8153 121.755 77.0879 122.043C77.2965 122.261 77.6133 122.393 77.9977 122.393C78.7103 122.393 79.0783 121.974 79.2192 121.428H80.6572C80.4052 122.852 79.3353 123.577 77.9891 123.577V123.58Z" fill="#2B2A29"/>
<path d="M84.0229 122.377C83.7488 122.987 83.2498 123.521 82.4027 123.521H81.5371V122.34H82.1073C82.4945 122.34 82.728 122.186 82.859 121.909L83.0761 121.44L80.754 116.725H82.2297L83.7503 119.999L85.1249 116.725H86.5935L84.0243 122.375L84.0229 122.377Z" fill="#2B2A29"/>
<path d="M91.5765 125.03V123.521H87.5509V125.03H86.1848V122.337H86.8682C87.4676 121.471 87.7331 120.027 87.7331 118.464V116.725H92.1068V122.337H92.9418V125.03H91.5765ZM90.6895 117.911H89.0892V118.893C89.0892 120.24 88.9461 121.392 88.4471 122.337H90.6895V117.911Z" fill="#2B2A29"/>
<path d="M98.3285 123.524L97.9028 122.321H95.3209L94.8852 123.524H93.4045L96.047 116.725H97.1561L99.807 123.524H98.3299H98.3285ZM96.6371 118.731L95.7181 121.203H97.5248L96.6371 118.731Z" fill="#2B2A29"/>
<path d="M103.357 116.728C104.752 116.728 105.752 117.607 105.752 118.847C105.752 120.088 104.761 120.966 103.357 120.966H101.962V123.527H100.545V116.728H103.358H103.357ZM103.285 119.774C103.919 119.774 104.339 119.409 104.339 118.845C104.339 118.284 103.919 117.913 103.285 117.913H101.962V119.773H103.285V119.774Z" fill="#2B2A29"/>
<path d="M109.177 123.58C108.381 123.58 107.729 123.315 107.22 122.835C106.485 122.147 106.507 121.296 106.507 120.123C106.507 118.95 106.486 118.099 107.22 117.411C107.729 116.936 108.381 116.67 109.177 116.67C110.533 116.67 111.593 117.394 111.846 118.815H110.408C110.267 118.273 109.9 117.851 109.185 117.851C108.802 117.851 108.485 117.985 108.28 118.205C108.003 118.49 107.921 118.815 107.921 120.123C107.921 121.429 108.003 121.755 108.28 122.043C108.485 122.261 108.802 122.393 109.185 122.393C109.898 122.393 110.266 121.974 110.408 121.428H111.846C111.593 122.852 110.523 123.577 109.177 123.577V123.58Z" fill="#2B2A29"/>
<path d="M115.657 117.909V123.524H114.239V117.909H112.344V116.725H117.553V117.909H115.657Z" fill="#2B2A29"/>
<path d="M123.223 120.401C123.541 120.715 123.672 121.098 123.672 121.577C123.672 122.769 122.815 123.524 121.45 123.524H118.412V116.725H121.327C122.692 116.725 123.571 117.449 123.571 118.595C123.571 119.249 123.276 119.725 122.675 120.039C122.958 120.183 123.071 120.259 123.223 120.401ZM121.215 119.474C121.794 119.474 122.155 119.179 122.155 118.695C122.155 118.207 121.795 117.909 121.215 117.909H119.829V119.474H121.215ZM121.307 122.34C121.889 122.34 122.254 122.014 122.254 121.501C122.254 120.984 121.889 120.667 121.307 120.667H119.829V122.34H121.307Z" fill="#2B2A29"/>
<path d="M124.733 123.524V116.725H129.514V117.909H126.15V119.505H129.014V120.687H126.15V122.339H129.514V123.524H124.733Z" fill="#2B2A29"/>
<path d="M134.415 123.524V120.681H131.958V123.524H130.541V116.725H131.958V119.505H134.415V116.725H135.832V123.524H134.415Z" fill="#2B2A29"/>
<path d="M141.02 123.524V120.681H138.565V123.524H137.146V116.725H138.565V119.505H141.02V116.725H142.437V123.524H141.02Z" fill="#2B2A29"/>
<path d="M146.605 123.524H143.753V116.725H145.168V119.285H146.606C148.024 119.285 148.961 120.164 148.961 121.405C148.961 122.645 148.011 123.524 146.606 123.524H146.605ZM146.493 120.47H145.166V122.339H146.493C147.135 122.339 147.544 121.969 147.544 121.405C147.544 120.852 147.135 120.469 146.493 120.469V120.47ZM149.744 116.725H151.158V123.524H149.744V116.725Z" fill="#2B2A29"/>
<path d="M156.571 123.525V119.161L153.749 123.525H152.484V116.726H153.902V121.077L156.723 116.726H157.985V123.525H156.571ZM155.246 116.364C154.44 116.364 153.636 116.031 153.594 115H154.594C154.624 115.419 154.881 115.593 155.247 115.593C155.615 115.593 155.868 115.419 155.899 115H156.899C156.857 116.031 156.052 116.364 155.248 116.364H155.246Z" fill="#2B2A29"/>
<path d="M165.664 123.524L165.238 122.321H162.656L162.22 123.524H160.74L163.381 116.725H164.49L167.142 123.524H165.664ZM163.973 118.731L163.053 121.203H164.859L163.973 118.731Z" fill="#2B2A29"/>
<path d="M167.891 123.524V116.725H169.308V119.953L171.653 116.725H173.345L170.908 119.915L173.589 123.524H171.855L169.308 119.974V123.524H167.891Z" fill="#2B2A29"/>
<path d="M178.817 123.524L178.39 122.321H175.809L175.374 123.524H173.892L176.535 116.725H177.644L180.295 123.524H178.818H178.817ZM177.125 118.731L176.206 121.203H178.012L177.125 118.731Z" fill="#2B2A29"/>
<path d="M186.079 125.03V123.521H182.052V125.03H180.688V122.337H181.37C181.97 121.471 182.235 120.027 182.235 118.464V116.725H186.608V122.337H187.443V125.03H186.079ZM185.192 117.911H183.592V118.893C183.592 120.24 183.449 121.392 182.949 122.337H185.192V117.911Z" fill="#2B2A29"/>
<path d="M188.298 123.524V116.725H193.079V117.909H189.714V119.505H192.58V120.687H189.714V122.339H193.079V123.524H188.298Z" fill="#2B2A29"/>
<path d="M199.264 123.524V119.562L197.878 122.139H196.921L195.522 119.562V123.524H194.108V116.725H195.504L197.399 120.401L199.286 116.725H200.681V123.524H199.264Z" fill="#2B2A29"/>
<path d="M206.088 123.524V119.16L203.267 123.524H202.002V116.725H203.418V121.078L206.239 116.725H207.501V123.524H206.088Z" fill="#2B2A29"/>
<path d="M212.237 123.525V120.975C211.862 121.033 211.167 121.155 210.389 121.155C209.465 121.155 208.536 120.633 208.536 119.505V116.725H209.954V119.16C209.954 119.753 210.35 119.974 210.861 119.974C211.297 119.974 211.941 119.885 212.235 119.831V116.726H213.64V123.525H212.235H212.237Z" fill="#2B2A29"/>
<path d="M214.963 123.524V116.725H219.745V117.909H216.381V119.505H219.245V120.687H216.381V122.339H219.745V123.524H214.963Z" fill="#2B2A29"/>
<path d="M223.142 123.58C222.347 123.58 221.695 123.315 221.186 122.835C220.451 122.147 220.473 121.296 220.473 120.123C220.473 118.95 220.452 118.099 221.186 117.411C221.695 116.936 222.347 116.67 223.142 116.67C224.499 116.67 225.556 117.394 225.812 118.815H224.374C224.234 118.273 223.865 117.851 223.152 117.851C222.768 117.851 222.451 117.985 222.248 118.205C221.97 118.49 221.888 118.815 221.888 120.123C221.888 121.429 221.97 121.755 222.248 122.043C222.451 122.261 222.768 122.393 223.152 122.393C223.865 122.393 224.234 121.974 224.374 121.428H225.812C225.556 122.852 224.489 123.577 223.142 123.577V123.58Z" fill="#2B2A29"/>
<path d="M226.722 123.524V116.725H228.138V119.953L230.482 116.725H232.175L229.739 119.915L232.422 123.524H230.686L228.138 119.974V123.524H226.722Z" fill="#2B2A29"/>
<path d="M237.2 123.524V119.16L234.377 123.524H233.113V116.725H234.53V121.078L237.352 116.725H238.616V123.524H237.2Z" fill="#2B2A29"/>
<path d="M244.019 123.525V119.161L241.197 123.525H239.932V116.726H241.35V121.077L244.172 116.726H245.434V123.525H244.019ZM242.694 116.364C241.89 116.364 241.086 116.031 241.043 115H242.042C242.073 115.419 242.329 115.593 242.694 115.593C243.063 115.593 243.316 115.419 243.347 115H244.347C244.303 116.031 243.5 116.364 242.694 116.364Z" fill="#2B2A29"/>
<path d="M10.2674 127.963V133.577H8.85125V127.963H6.9552V126.781H12.1635V127.963H10.2674Z" fill="#2B2A29"/>
<path d="M13.0223 133.578V126.781H17.8035V127.965H14.4398V129.56H17.3053V130.742H14.4398V132.394H17.8035V133.578H13.0223Z" fill="#2B2A29"/>
<path d="M23.3094 133.578L22.8823 132.375H20.3007L19.865 133.578H18.3839L21.0254 126.781H22.1357L24.7869 133.578H23.3094ZM21.6178 128.787L20.6961 131.258H22.504L21.6178 128.787Z" fill="#2B2A29"/>
<path d="M27.6006 127.963V133.577H26.1843V127.963H24.2896V126.781H29.4978V127.963H27.6006Z" fill="#2B2A29"/>
<path d="M33.1683 126.781C34.5637 126.781 35.5638 127.659 35.5638 128.899C35.5638 130.139 34.5723 131.019 33.1683 131.019H31.7729V133.578H30.3567V126.781H33.1695H33.1683ZM33.0949 129.825C33.7289 129.825 34.1488 129.463 34.1488 128.899C34.1488 128.336 33.7277 127.965 33.0949 127.965H31.7717V129.825H33.0949Z" fill="#2B2A29"/>
<path d="M42.6995 133.578V129.215L39.8781 133.578H38.6136V126.781H40.0311V131.132L42.8526 126.781H44.117V133.578H42.6995Z" fill="#2B2A29"/>
<path d="M50.5909 133.578V129.617L49.204 132.195H48.2468L46.8477 129.617V133.578H45.4352V126.781H46.8306L48.7254 130.457L50.6116 126.781H52.007V133.578H50.5909Z" fill="#2B2A29"/>
<path d="M53.3271 133.578V126.781H58.1083V127.965H54.7446V129.56H57.6089V130.742H54.7446V132.394H58.1083V133.578H53.3271Z" fill="#2B2A29"/>
<path d="M63.0082 133.578V130.735H60.5516V133.578H59.1354V126.781H60.5516V129.56H63.0082V126.781H64.4257V133.578H63.0082Z" fill="#2B2A29"/>
<path d="M69.8269 133.578V129.215L67.005 133.578H65.7396V126.781H67.1581V131.132L69.9799 126.781H71.2442V133.578H69.8269Z" fill="#2B2A29"/>
<path d="M76.2414 127.963V133.577H74.8276V126.781H79.3928V127.963H76.2414Z" fill="#2B2A29"/>
<path d="M83.6704 133.578L83.2433 132.375H80.6635L80.2271 133.578H78.7465L81.3889 126.781H82.498L85.1497 133.578H83.6719H83.6704ZM81.979 128.787L81.06 131.258H82.8667L81.979 128.787Z" fill="#2B2A29"/>
<path d="M90.1036 133.578V127.965H88.373V129.94C88.373 132.797 87.6263 133.578 86.1179 133.578H85.5576V132.394H85.7605C86.4866 132.394 87.0041 131.995 87.0041 129.865V126.781H91.5209V133.578H90.1036Z" fill="#2B2A29"/>
<path d="M96.9282 133.578V129.215L94.1057 133.578H92.8414V126.781H94.2588V131.132L97.0799 126.781H98.342V133.578H96.9282Z" fill="#2B2A29"/>
<path d="M104.005 133.578L103.578 132.375H100.997L100.562 133.578H99.0802L101.723 126.781H102.832L105.483 133.578H104.006H104.005ZM102.313 128.787L101.394 131.258H103.199L102.313 128.787Z" fill="#2B2A29"/>
<path d="M108.424 133.633C107.628 133.633 106.976 133.368 106.467 132.889C105.733 132.2 105.754 131.351 105.754 130.178C105.754 129.004 105.733 128.155 106.467 127.467C106.976 126.99 107.628 126.725 108.424 126.725C109.78 126.725 110.84 127.451 111.094 128.872H109.656C109.515 128.33 109.146 127.907 108.433 127.907C108.05 127.907 107.732 128.041 107.529 128.261C107.251 128.545 107.169 128.872 107.169 130.179C107.169 131.486 107.251 131.811 107.529 132.099C107.732 132.319 108.05 132.45 108.433 132.45C109.146 132.45 109.515 132.03 109.656 131.485H111.094C110.842 132.909 109.77 133.633 108.424 133.633Z" fill="#2B2A29"/>
<path d="M113.424 127.963V133.577H112.01V126.781H116.575V127.963H113.424Z" fill="#2B2A29"/>
<path d="M120.853 133.578L120.427 132.375H117.846L117.411 133.578H115.93L118.572 126.781H119.682L122.333 133.578H120.854H120.853ZM119.163 128.787L118.242 131.258H120.05L119.163 128.787Z" fill="#2B2A29"/>
<path d="M125.883 126.781C127.278 126.781 128.278 127.659 128.278 128.899C128.278 130.139 127.289 131.019 125.883 131.019H124.489V133.578H123.071V126.781H125.884H125.883ZM125.811 129.825C126.444 129.825 126.864 129.463 126.864 128.899C126.864 128.336 126.444 127.965 125.811 127.965H124.489V129.825H125.811Z" fill="#2B2A29"/>
<path d="M132.882 133.578L132.457 132.375H129.875L129.439 133.578H127.958L130.599 126.781H131.708L134.36 133.578H132.882ZM131.191 128.787L130.272 131.258H132.079L131.191 128.787Z" fill="#2B2A29"/>
<path d="M137.136 133.578V126.781H138.554V130.007L140.898 126.781H142.592L140.155 129.971L142.836 133.578H141.102L138.554 130.028V133.578H137.136Z" fill="#2B2A29"/>
<path d="M148.062 133.578L147.636 132.375H145.054L144.619 133.578H143.137L145.779 126.781H146.888L149.539 133.578H148.062ZM146.37 128.787L145.448 131.258H147.256L146.37 128.787Z" fill="#2B2A29"/>
<path d="M155.434 133.578V129.617L154.049 132.195H153.092L151.693 129.617V133.578H150.279V126.781H151.676L153.57 130.457L155.456 126.781H156.852V133.578H155.434Z" fill="#2B2A29"/>
<path d="M162.518 133.578L162.091 132.375H159.51L159.074 133.578H157.594L160.235 126.781H161.344L163.997 133.578H162.519H162.518ZM160.827 128.787L159.905 131.258H161.713L160.827 128.787Z" fill="#2B2A29"/>
<path d="M168.951 133.578V127.965H167.22V129.94C167.22 132.797 166.475 133.578 164.965 133.578H164.404V132.394H164.608C165.334 132.394 165.85 131.995 165.85 129.865V126.781H170.367V133.578H168.95H168.951Z" fill="#2B2A29"/>
<path d="M176.034 133.578L175.608 132.375H173.027L172.592 133.578H171.109L173.753 126.781H174.862L177.514 133.578H176.036H176.034ZM174.343 128.787L173.423 131.258H175.231L174.343 128.787H174.343Z" fill="#2B2A29"/>
<path d="M247.51 136.598H3.48598V112.398H247.51V136.598ZM251 109H247.51H3.48959H0V112.398V136.598V140H3.48959H247.51H251V136.598V112.398V109Z" fill="#0B7870"/>
<path d="M247.511 6.65962V102.498H3.48958V77.5555L247.511 6.65962ZM251 2L246.537 3.29556L2.51983 74.1938L0 74.9224V77.5555V102.498V106H3.48958H247.511H251V102.498V6.65962V2Z" fill="#0B7870"/>
<path d="M470.778 87.7773H467.171V81.0035H463.609V99.002H470.777C474.311 99.002 476.692 96.6743 476.692 93.3889C476.692 90.1043 474.335 87.7759 470.777 87.7759L470.778 87.7773ZM470.497 95.867H467.171V90.9137H470.497C472.109 90.9137 473.131 91.9247 473.131 93.3911C473.131 94.883 472.109 95.8684 470.497 95.8684V95.867Z" fill="#2B2A29"/>
<path d="M482.219 81.0035H478.661V99.002H482.219V81.0035Z" fill="#2B2A29"/>
<path d="M454.218 81.0035H447.155V99.002H450.713V92.2268H454.218C457.749 92.2268 460.231 89.9005 460.231 86.6145C460.231 83.3263 457.724 81.0035 454.218 81.0035ZM454.039 89.069H450.713V84.14H454.039C455.625 84.14 456.677 85.1254 456.677 86.6159C456.677 88.1079 455.627 89.069 454.039 89.069Z" fill="#2B2A29"/>
<path d="M443.834 84.135V81H430.755V84.135H435.519V98.9985H439.075V84.135H443.834Z" fill="#2B2A29"/>
<path d="M424.273 81.0035H421.481L414.853 99.002H418.565L419.665 95.8171H426.14L427.215 99.002H430.928L424.272 81.0035H424.273ZM420.667 92.8595L422.968 86.3095L425.194 92.8595H420.667Z" fill="#2B2A29"/>
<path d="M412.184 98.9985V95.8635H403.737V91.4923H410.93V88.3573H403.737V84.1364H412.184V81H400.179V98.9985H412.184Z" fill="#2B2A29"/>
<path d="M396.862 84.135V81H383.783V84.135H388.546V98.9985H392.103V84.135H396.862Z" fill="#2B2A29"/>
<path d="M369.595 98.9985V81H358.255V89.166C358.255 94.8061 356.951 95.8635 355.132 95.8635H354.621V98.9985H356.026C359.816 98.9985 361.684 96.9244 361.684 89.3669V84.1364H366.035V98.9985H369.593H369.595Z" fill="#2B2A29"/>
<path d="M346.133 81.0035H343.341L336.714 99.002H340.426L341.525 95.8171H348.002L349.076 99.002H352.789L346.132 81.0035H346.133ZM342.526 92.8595L344.827 86.3095L347.054 92.8595H342.526Z" fill="#2B2A29"/>
<path d="M334.089 98.9985V81H330.584L325.85 90.7342L321.088 81H317.583V98.9985H321.137V88.5069L324.645 95.3319H327.052L330.531 88.5069V98.9985H334.089Z" fill="#2B2A29"/>
<path d="M308.315 81.0035H305.523L298.896 99.002H302.607L303.706 95.8171H310.183L311.256 99.002H314.969L308.312 81.0035H308.315ZM304.708 92.8595L307.009 86.3095L309.235 92.8595H304.708Z" fill="#2B2A29"/>
<path d="M286.558 98.9985V89.5956L292.956 98.9985H297.308L290.574 89.4424L296.693 81H292.444L286.558 89.5464V81H283V98.9985H286.558Z" fill="#2B2A29"/>
<path d="M334.558 116.061C335.987 116.061 337.011 116.984 337.011 118.286C337.011 119.589 335.997 120.511 334.558 120.511H333.129V123.2H331.677V116.061H334.558ZM334.483 119.259C335.132 119.259 335.563 118.879 335.563 118.284C335.563 117.695 335.132 117.305 334.483 117.305H333.129V119.258H334.483V119.259Z" fill="#2B2A29"/>
<path d="M340.156 123.197V116.058H341.608V119.448L344.007 116.058H345.742L343.246 119.408L345.991 123.197H344.216L341.608 119.469V123.197H340.156Z" fill="#2B2A29"/>
<path d="M351.345 123.197L350.909 121.934H348.264L347.818 123.197H346.302L349.007 116.058H350.142L352.858 123.197H351.345ZM349.612 118.164L348.668 120.759H350.52L349.612 118.164Z" fill="#2B2A29"/>
<path d="M358.894 123.197V119.037L357.474 121.743H356.494L355.061 119.037V123.197H353.613V116.058H355.044L356.984 119.918L358.915 116.058H360.345V123.197H358.894Z" fill="#2B2A29"/>
<path d="M366.151 123.197L365.713 121.934H363.07L362.624 123.197H361.108L363.813 116.058H364.95L367.665 123.197H366.152H366.151ZM364.419 118.164L363.475 120.759H365.326L364.419 118.164Z" fill="#2B2A29"/>
<path d="M372.736 123.195V117.3H370.964V119.374C370.964 122.374 370.2 123.195 368.656 123.195H368.081V121.951H368.29C369.032 121.951 369.563 121.532 369.563 119.297V116.058H374.187V123.197H372.736L372.736 123.195Z" fill="#2B2A29"/>
<path d="M382.02 123.197V118.618L379.129 123.197H377.834V116.058H379.286V120.628L382.176 116.058H383.468V123.197H382.02Z" fill="#2B2A29"/>
<path d="M387.336 123.255C386.521 123.255 385.853 122.978 385.332 122.473C384.578 121.75 384.601 120.857 384.601 119.626C384.601 118.394 384.58 117.501 385.332 116.778C385.853 116.279 386.521 116 387.336 116C388.724 116 389.808 116.76 390.069 118.253H388.596C388.452 117.683 388.075 117.24 387.344 117.24C386.952 117.24 386.627 117.38 386.416 117.611C386.133 117.911 386.049 118.253 386.049 119.625C386.049 120.997 386.133 121.339 386.416 121.641C386.625 121.871 386.951 122.01 387.344 122.01C388.075 122.01 388.451 121.569 388.596 120.996H390.069C389.806 122.491 388.714 123.253 387.336 123.253V123.255Z" fill="#2B2A29"/>
<path d="M390.991 123.197V116.058H395.887V117.301H392.442V118.976H395.376V120.218H392.442V121.952H395.887V123.197H390.991Z" fill="#2B2A29"/>
<path d="M402.22 123.197V119.037L400.8 121.743H399.82L398.388 119.037V123.197H396.939V116.058H398.369L400.31 119.918L402.239 116.058H403.672V123.197H402.22Z" fill="#2B2A29"/>
<path d="M405.023 123.197V116.058H409.919V117.301H406.474V118.976H409.408V120.218H406.474V121.952H409.919V123.197H405.023Z" fill="#2B2A29"/>
<path d="M414.937 123.197V120.212H412.422V123.197H410.971V116.058H412.422V118.976H414.937V116.058H416.389V123.197H414.937Z" fill="#2B2A29"/>
<path d="M422.71 124.778V123.193H418.588V124.778H417.189V121.95H417.889C418.503 121.041 418.775 119.525 418.775 117.884V116.058H423.254V121.95H424.109V124.778H422.711H422.71ZM421.802 117.303H420.163V118.334C420.163 119.749 420.016 120.958 419.504 121.951H421.802V117.303Z" fill="#2B2A29"/>
<path d="M432.541 117.301V123.197H431.09V116.058H435.768V117.301H432.541Z" fill="#2B2A29"/>
<path d="M436.63 123.197V116.058H441.525V117.301H438.082V118.976H441.015V120.218H438.082V121.952H441.525V123.197H436.63Z" fill="#2B2A29"/>
<path d="M335.77 133.753V127.859H333.997V129.934C333.997 132.933 333.233 133.753 331.688 133.753H331.113V132.51H331.322C332.064 132.51 332.595 132.092 332.595 129.855V126.616H337.219V133.753H335.769H335.77Z" fill="#2B2A29"/>
<path d="M347.955 127.858V133.752H346.503V127.858H344.563V126.616H349.897V127.858H347.955Z" fill="#2B2A29"/>
<path d="M357.206 133.753L356.768 132.491H354.124L353.68 133.753H352.162L354.869 126.616H356.005L358.72 133.753H357.207H357.206ZM355.473 128.723L354.53 131.317H356.382L355.473 128.723Z" fill="#2B2A29"/>
<path d="M359.487 133.753V126.616H360.938V130.004L363.337 126.616H365.073L362.576 129.966L365.322 133.753H363.547L360.938 130.026V133.753H359.487Z" fill="#2B2A29"/>
<path d="M370.673 133.753L370.237 132.491H367.593L367.149 133.753H365.63L368.337 126.616H369.473L372.189 133.753H370.675H370.673ZM368.941 128.723L367.999 131.317H369.851L368.942 128.723H368.941Z" fill="#2B2A29"/>
<path d="M378.111 135.336V133.751H373.99V135.336H372.591V132.508H373.291C373.905 131.599 374.177 130.083 374.177 128.442V126.616H378.656V132.508H379.51V135.336H378.113H378.111ZM377.203 127.859H375.564V128.891C375.564 130.305 375.418 131.515 374.907 132.508H377.203V127.859Z" fill="#2B2A29"/>
<path d="M380.385 133.753V126.616H385.281V127.859H381.837V129.535H384.769V130.776H381.837V132.51H385.281V133.753H380.385Z" fill="#2B2A29"/>
<path d="M391.614 133.753V129.595L390.194 132.301H389.215L387.782 129.595V133.753H386.333V126.616H387.763L389.704 130.476L391.633 126.616H393.065V133.753H391.614Z" fill="#2B2A29"/>
<path d="M398.605 133.753V129.173L395.713 133.753H394.419V126.616H395.87V131.185L398.761 126.616H400.052V133.753H398.605Z" fill="#2B2A29"/>
<path d="M402.671 133.751H400.949L402.484 130.784C401.701 130.446 401.209 129.741 401.209 128.839C401.209 127.476 402.223 126.613 403.651 126.613H406.532V133.75H405.085V131.066H403.893L402.672 133.75L402.671 133.751ZM405.084 127.839H403.726C403.081 127.839 402.65 128.229 402.65 128.819C402.65 129.4 403.081 129.831 403.726 129.831H405.084V127.839Z" fill="#2B2A29"/>
<path d="M414.301 127.858V133.752H412.85V127.858H410.909V126.616H416.241V127.858H414.301Z" fill="#2B2A29"/>
<path d="M417.12 133.753V126.616H422.017V127.859H418.571V129.535H421.505V130.776H418.571V132.51H422.017V133.753H417.12Z" fill="#2B2A29"/>
<path d="M427.655 133.753L427.219 132.491H424.575L424.129 133.753H422.612L425.318 126.616H426.453L429.17 133.753H427.655ZM425.923 128.723L424.981 131.317H426.831L425.923 128.723Z" fill="#2B2A29"/>
<path d="M432.05 127.858V133.752H430.598V127.858H428.656V126.616H433.99V127.858H432.05Z" fill="#2B2A29"/>
<path d="M437.751 126.616C439.179 126.616 440.204 127.539 440.204 128.84C440.204 130.144 439.189 131.066 437.751 131.066H436.322V133.755H434.872V126.616H437.752H437.751ZM437.676 129.814C438.325 129.814 438.757 129.434 438.757 128.839C438.757 128.248 438.325 127.859 437.676 127.859H436.322V129.813H437.676V129.814Z" fill="#2B2A29"/>
<path d="M444.03 133.751H441.11V126.613H442.558V129.301H444.03C445.482 129.301 446.443 130.225 446.443 131.528C446.443 132.828 445.469 133.751 444.03 133.751ZM443.915 130.545H442.558V132.508H443.915C444.573 132.508 444.992 132.118 444.992 131.528C444.992 130.947 444.573 130.545 443.915 130.545ZM447.244 126.613H448.694V133.75H447.244V126.613Z" fill="#2B2A29"/>
<path d="M429.447 116.782C428.926 116.273 428.236 116 427.444 116C426.638 116 425.949 116.272 425.427 116.782C425.031 117.172 424.834 117.573 424.75 118.252H426.224C426.273 117.991 426.358 117.775 426.501 117.625C426.732 117.373 427.069 117.245 427.444 117.245C427.819 117.245 428.142 117.374 428.373 117.625C428.664 117.936 428.738 118.326 428.738 119.497V119.507H424.696V120.169C424.705 120.909 424.776 121.836 425.426 122.476C425.947 122.99 426.637 123.259 427.443 123.259C428.245 123.259 428.925 122.999 429.446 122.476C430.177 121.754 430.186 120.822 430.186 119.89V119.129C430.186 117.976 429.968 117.295 429.446 116.783L429.447 116.782ZM427.444 122.014C427.069 122.014 426.755 121.877 426.501 121.634C426.302 121.439 426.218 121.125 426.18 120.75H428.698C428.651 121.218 428.557 121.431 428.373 121.634C428.142 121.886 427.818 122.014 427.444 122.014Z" fill="#2B2A29"/>
<path d="M284.013 117.301V123.197H282.565V116.058H287.24V117.301H284.013Z" fill="#2B2A29"/>
<path d="M291.621 123.197L291.184 121.934H288.541L288.095 123.197H286.579L289.284 116.058H290.42L293.135 123.197H291.621ZM289.89 118.164L288.946 120.759H290.797L289.89 118.164Z" fill="#2B2A29"/>
<path d="M298.208 123.195V117.3H296.435V119.374C296.435 122.374 295.672 123.195 294.126 123.195H293.552V121.951H293.76C294.504 121.951 295.033 121.532 295.033 119.297V116.058H299.658V123.197H298.206L298.208 123.195Z" fill="#2B2A29"/>
<path d="M305.197 123.197V118.618L302.308 123.197H301.013V116.058H302.463V120.628L305.353 116.058H306.645V123.197H305.197Z" fill="#2B2A29"/>
<path d="M316.679 123.255C315.864 123.255 315.196 122.978 314.676 122.473C313.924 121.75 313.945 120.857 313.945 119.626C313.945 118.394 313.924 117.501 314.676 116.778C315.196 116.279 315.866 116 316.679 116C318.068 116 319.151 116.76 319.413 118.253H317.94C317.797 117.683 317.42 117.24 316.688 117.24C316.292 117.24 315.971 117.38 315.762 117.611C315.477 117.911 315.393 118.253 315.393 119.625C315.393 120.997 315.477 121.339 315.762 121.641C315.97 121.871 316.292 122.01 316.688 122.01C317.419 122.01 317.797 121.569 317.94 120.996H319.413C319.151 122.491 318.058 123.253 316.679 123.253V123.255Z" fill="#2B2A29"/>
<path d="M321.801 117.301V123.197H320.352V116.058H325.029V117.301H321.801Z" fill="#2B2A29"/>
<path d="M329.409 123.197L328.971 121.934H326.328L325.883 123.197H324.366L327.072 116.058H328.208L330.923 123.197H329.41H329.409ZM327.676 118.164L326.734 120.759H328.585L327.676 118.164Z" fill="#2B2A29"/>
<path d="M285.369 127.858V133.752H283.919V127.858H281.978V126.616H287.312V127.858H285.369Z" fill="#2B2A29"/>
<path d="M291.837 133.753L291.401 132.491H288.757L288.311 133.753H286.794L289.501 126.616H290.638L293.353 133.753H291.839H291.837ZM290.105 128.723L289.164 131.317H291.015L290.106 128.723H290.105Z" fill="#2B2A29"/>
<path d="M296.231 127.858V133.752H294.78V127.858H292.839V126.616H298.172V127.858H296.231Z" fill="#2B2A29"/>
<path d="M302.698 133.753L302.261 132.491H299.618L299.171 133.753H297.655L300.361 126.616H301.497L304.212 133.753H302.698ZM300.965 128.723L300.024 131.317H301.875L300.966 128.723H300.965Z" fill="#2B2A29"/>
<path d="M307.848 126.616C309.277 126.616 310.302 127.539 310.302 128.84C310.302 130.144 309.287 131.066 307.848 131.066H306.419V133.755H304.968V126.616H307.848ZM307.774 129.814C308.424 129.814 308.854 129.434 308.854 128.839C308.854 128.248 308.424 127.859 307.774 127.859H306.419V129.813H307.774V129.814Z" fill="#2B2A29"/>
<path d="M318.226 135.336V133.751H314.104V135.336H312.706V132.508H313.406C314.02 131.599 314.292 130.083 314.292 128.442V126.616H318.77V132.508H319.626V135.336H318.227H318.226ZM317.318 127.859H315.68V128.891C315.68 130.305 315.533 131.515 315.02 132.508H317.318V127.859Z" fill="#2B2A29"/>
<path d="M329.236 130.826V133.753H327.797V130.826L325.562 126.616H327.139L328.528 129.493L329.891 126.616H331.466L329.236 130.826Z" fill="#2B2A29"/>
<path d="M312.305 116.782C311.784 116.273 311.093 116 310.301 116C309.496 116 308.807 116.272 308.285 116.782C307.889 117.172 307.692 117.573 307.608 118.252H309.081C309.131 117.991 309.215 117.775 309.36 117.625C309.59 117.373 309.927 117.245 310.301 117.245C310.677 117.245 311 117.374 311.232 117.625C311.522 117.936 311.597 118.326 311.597 119.497V119.507H307.556V120.169C307.566 120.909 307.637 121.836 308.286 122.476C308.808 122.99 309.497 123.259 310.302 123.259C311.104 123.259 311.785 122.999 312.307 122.476C313.037 121.754 313.046 120.822 313.046 119.89V119.129C313.046 117.976 312.828 117.295 312.307 116.783L312.305 116.782ZM310.301 122.014C309.927 122.014 309.611 121.877 309.36 121.634C309.159 121.439 309.075 121.125 309.039 120.75H311.557C311.511 121.218 311.417 121.431 311.232 121.634C311.002 121.886 310.677 122.014 310.301 122.014Z" fill="#2B2A29"/>
<path d="M324.692 127.336C324.171 126.828 323.48 126.555 322.688 126.555C321.883 126.555 321.192 126.826 320.672 127.336C320.276 127.726 320.079 128.127 319.995 128.805H321.468C321.518 128.545 321.601 128.33 321.746 128.179C321.977 127.928 322.314 127.799 322.688 127.799C323.061 127.799 323.387 127.929 323.618 128.179C323.909 128.491 323.983 128.88 323.983 130.052V130.061H319.941V130.719V130.722C319.95 131.463 320.021 132.388 320.671 133.03C321.191 133.543 321.882 133.812 322.686 133.812C323.489 133.812 324.169 133.551 324.691 133.03C325.42 132.308 325.43 131.376 325.43 130.444V129.684C325.43 128.531 325.212 127.85 324.691 127.338L324.692 127.336ZM322.688 132.569C322.314 132.569 321.998 132.432 321.746 132.189C321.547 131.994 321.462 131.679 321.424 131.304H323.943C323.899 131.772 323.802 131.984 323.618 132.189C323.387 132.44 323.061 132.569 322.688 132.569Z" fill="#2B2A29"/>
<path d="M343.267 127.336C342.745 126.828 342.054 126.555 341.262 126.555C340.457 126.555 339.768 126.826 339.247 127.336C338.85 127.726 338.654 128.127 338.57 128.805H340.042C340.093 128.545 340.177 128.33 340.321 128.179C340.551 127.928 340.889 127.799 341.262 127.799C341.638 127.799 341.962 127.929 342.194 128.179C342.483 128.491 342.558 128.88 342.558 130.052V130.061H338.517V130.719V130.722C338.527 131.463 338.598 132.388 339.247 133.03C339.768 133.543 340.457 133.812 341.262 133.812C342.064 133.812 342.745 133.551 343.267 133.03C343.997 132.308 344.006 131.376 344.006 130.444V129.684C344.006 128.531 343.788 127.85 343.267 127.338V127.336ZM341.262 132.569C340.889 132.569 340.573 132.432 340.321 132.189C340.122 131.994 340.036 131.679 340 131.304H342.518C342.474 131.772 342.378 131.984 342.194 132.189C341.963 132.44 341.638 132.569 341.262 132.569Z" fill="#2B2A29"/>
<path d="M528.441 138.378H279.559V112.617H528.441V138.378ZM532 109H528.441H279.559H276V112.617V138.378V142H279.559H528.441H532V138.378V112.617V109Z" fill="#0B7870"/>
<path d="M528.44 4.70443V101.465H279.558V76.282L528.44 4.70443ZM532 0L527.448 1.30802L278.57 72.8879L276 73.6235V76.282V101.465V105H279.559H528.441H532V101.465V4.70443V0Z" fill="#0B7870"/>
<path d="M760.457 98.6827V95.6027H752.136V91.3082H759.221V88.2282H752.136V84.0814H760.457V81H748.629V98.6827H760.457Z" fill="#2B2A29"/>
<path d="M741.902 91.0604C743.642 90.4402 745.182 88.8995 745.182 86.4152C745.182 83.4619 743.012 81 739.355 81H732.318V98.6827H735.822V91.6323H738.347L741.852 98.6827H745.911L741.901 91.059L741.902 91.0604ZM739.128 88.7504H735.824V84.0828H739.128C740.668 84.0828 741.675 85.0502 741.675 86.4166C741.675 87.7837 740.668 88.7518 739.128 88.7518V88.7504Z" fill="#2B2A29"/>
<path d="M729.643 84.0814V81H716.757V84.0814H721.448V98.6827H724.953V84.0814H729.643Z" fill="#2B2A29"/>
<path d="M710.958 81.0035H708.207L701.678 98.6862H705.335L706.418 95.5572H712.798L713.858 98.6862H717.514L710.958 81.0035ZM707.404 92.6515L709.671 86.2164L711.864 92.6515H707.404Z" fill="#2B2A29"/>
<path d="M700.057 98.6827V95.6027H691.736V91.3082H698.822V88.2282H691.736V84.0814H700.057V81H688.231V98.6827H700.057Z" fill="#2B2A29"/>
<path d="M684.375 98.6827V81H680.87V88.2282H674.795V81H671.289V98.6827H674.795V91.2816H680.87V98.6827H684.375Z" fill="#2B2A29"/>
<path d="M668.609 84.0814V81H655.725V84.0814H660.415V98.6827H663.92V84.0814H668.609Z" fill="#2B2A29"/>
<path d="M646.428 98.6827V95.6027H638.283V81H634.778V98.6827H646.428Z" fill="#2B2A29"/>
<path d="M625.818 81.0035H623.068L616.538 98.6862H620.195L621.278 95.5572H627.658L628.718 98.6862H632.374L625.818 81.0035ZM622.264 92.6515L624.531 86.2164L626.724 92.6515H622.264Z" fill="#2B2A29"/>
<path d="M614.12 98.6827V81H610.668L606 90.5634L601.312 81H597.86V98.6827H601.361V88.3752L604.817 95.0805H607.188L610.617 88.3752V98.6827H614.12Z" fill="#2B2A29"/>
<path d="M588.897 81.0035H586.146L579.616 98.6862H583.273L584.356 95.5572H590.736L591.795 98.6862H595.453L588.897 81.0035ZM585.339 92.6515L587.609 86.2164L589.802 92.6515H585.339Z" fill="#2B2A29"/>
<path d="M578.526 98.6827L572.145 88.0273L578.095 81H573.836L567.51 88.6986V81H564V98.6827H567.51V93.3704L569.828 90.6376L574.439 98.6827H578.526Z" fill="#2B2A29"/>
<path d="M569.009 122.446C568.449 123.01 567.779 123.259 566.963 123.259C566.187 123.259 565.535 122.998 565.006 122.476C564.689 122.168 564.497 121.805 564.415 121.404C564.336 121.004 564.297 120.412 564.297 119.63C564.297 118.848 564.336 118.257 564.415 117.856C564.497 117.446 564.689 117.094 565.006 116.782C565.535 116.261 566.187 116 566.963 116C568.611 116 569.499 117.043 569.691 118.287H568.267C568.093 117.595 567.664 117.243 566.963 117.243C566.586 117.243 566.281 117.374 566.056 117.623C565.792 117.956 565.709 118.217 565.709 119.629C565.709 121.031 565.77 121.312 566.056 121.643C566.269 121.894 566.577 122.013 566.963 122.013C567.38 122.013 567.715 121.882 567.971 121.611C568.184 121.372 568.296 121.051 568.296 120.661V120.392H566.963V119.229H569.7V120.269C569.7 121.312 569.509 121.923 569.009 122.445V122.446Z" fill="#2B2A29"/>
<path d="M574.825 123.195L574.398 121.934H571.821L571.385 123.195H569.906L572.545 116.058H573.654L576.302 123.195H574.826H574.825ZM573.135 118.164L572.214 120.759H574.02L573.135 118.164Z" fill="#2B2A29"/>
<path d="M577.038 123.195V116.058H578.454V121.952H581.742V123.195H577.038Z" fill="#2B2A29"/>
<path d="M582.599 123.197H584.011V116.061H582.599V123.197Z" fill="#2B2A29"/>
<path d="M589.653 123.195L589.224 121.934H586.649L586.214 123.195H584.734L587.373 116.058H588.481L591.129 123.195H589.653ZM587.963 118.164L587.044 120.759H588.849L587.963 118.164Z" fill="#2B2A29"/>
<path d="M594.058 123.256C592.959 123.256 592.122 123.025 591.409 122.315L592.329 121.415C592.785 121.864 593.406 122.013 594.079 122.013C594.914 122.013 595.36 121.702 595.36 121.132C595.36 120.883 595.29 120.671 595.139 120.533C594.996 120.402 594.831 120.329 594.496 120.278L593.619 120.158C592.998 120.069 592.538 119.88 592.213 119.569C591.869 119.226 591.696 118.769 591.696 118.166C591.696 116.893 592.654 116.003 594.222 116.003C595.221 116.003 595.941 116.24 596.563 116.834L595.668 117.705C595.208 117.274 594.656 117.214 594.179 117.214C593.427 117.214 593.058 117.625 593.058 118.114C593.058 118.295 593.119 118.486 593.274 118.627C593.417 118.756 593.648 118.867 593.943 118.905L594.799 119.024C595.459 119.117 595.876 119.298 596.183 119.576C596.573 119.934 596.743 120.46 596.743 121.088C596.743 122.473 595.574 123.255 594.055 123.255L594.058 123.256Z" fill="#2B2A29"/>
<path d="M602.273 122.446C601.713 123.01 601.043 123.259 600.228 123.259C599.451 123.259 598.8 122.998 598.271 122.476C597.955 122.168 597.763 121.805 597.681 121.404C597.601 121.004 597.562 120.412 597.562 119.63C597.562 118.848 597.602 118.257 597.681 117.856C597.763 117.446 597.955 117.094 598.271 116.782C598.801 116.261 599.451 116 600.228 116C601.875 116 602.764 117.043 602.956 118.287H601.531C601.358 117.595 600.928 117.243 600.229 117.243C599.852 117.243 599.547 117.374 599.323 117.623C599.058 117.956 598.976 118.217 598.976 119.629C598.976 121.031 599.036 121.312 599.323 121.643C599.536 121.894 599.843 122.013 600.229 122.013C600.646 122.013 600.981 121.882 601.237 121.611C601.449 121.372 601.562 121.051 601.562 120.661V120.392H600.229V119.229H602.966V120.269C602.966 121.312 602.774 121.923 602.275 122.445L602.273 122.446Z" fill="#2B2A29"/>
<path d="M608.089 123.195L607.662 121.934H605.083L604.648 123.195H603.17L605.81 116.058H606.917L609.566 123.195H608.09H608.089ZM606.399 118.164L605.48 120.759H607.284L606.399 118.164Z" fill="#2B2A29"/>
<path d="M614.15 123.195L612.737 120.349H611.716V123.195H610.302V116.058H613.142C614.618 116.058 615.495 117.052 615.495 118.245C615.495 119.247 614.874 119.866 614.172 120.117L615.787 123.195H614.15ZM613.05 117.301H611.718V119.186H613.05C613.669 119.186 614.076 118.796 614.076 118.245C614.076 117.693 613.669 117.301 613.05 117.301Z" fill="#2B2A29"/>
<path d="M623.03 123.195L621.167 119.947L620.23 121.049V123.195H618.817V116.058H620.23V119.165L622.786 116.058H624.507L622.102 118.896L624.679 123.195H623.03Z" fill="#2B2A29"/>
<path d="M629.952 123.195L629.526 121.934H626.948L626.512 123.195H625.033L627.673 116.058H628.781L631.429 123.195H629.952ZM628.262 118.164L627.344 120.759H629.15L628.263 118.164H628.262Z" fill="#2B2A29"/>
<path d="M637.317 123.195V119.037L635.932 121.741H634.976L633.58 119.037V123.195H632.166V116.058H633.561L635.454 119.918L637.336 116.058H638.733V123.195H637.317Z" fill="#2B2A29"/>
<path d="M644.395 123.195L643.969 121.934H641.39L640.955 123.195H639.475L642.114 116.058H643.222L645.87 123.195H644.395ZM642.705 118.164L641.785 120.759H643.59L642.705 118.164Z" fill="#2B2A29"/>
<path d="M646.605 123.195V116.058H648.023V121.952H651.309V123.195H646.605Z" fill="#2B2A29"/>
<path d="M657.088 117.301V123.197H655.672V117.301H653.779V116.058H658.982V117.301H657.088Z" fill="#2B2A29"/>
<path d="M663.395 123.195L662.969 121.934H660.39L659.955 123.195H658.475L661.115 116.058H662.224L664.873 123.195H663.396H663.395ZM661.704 118.164L660.786 120.759H662.593L661.706 118.164H661.704Z" fill="#2B2A29"/>
<path d="M667.682 117.301V123.197H666.267V117.301H664.373V116.058H669.576V117.301H667.682Z" fill="#2B2A29"/>
<path d="M673.99 123.195L673.564 121.934H670.986L670.551 123.195H669.071L671.71 116.058H672.818L675.467 123.195H673.99ZM672.3 118.164L671.38 120.759H673.185L672.3 118.164Z" fill="#2B2A29"/>
<path d="M680.053 123.195L678.639 120.349H677.619V123.195H676.205V116.058H679.045C680.521 116.058 681.398 117.052 681.398 118.245C681.398 119.247 680.776 119.866 680.073 120.117L681.69 123.195H680.053ZM678.953 117.301H677.621V119.186H678.953C679.571 119.186 679.979 118.796 679.979 118.245C679.979 117.693 679.571 117.301 678.953 117.301Z" fill="#2B2A29"/>
<path d="M566.535 133.814C565.436 133.814 564.598 133.583 563.887 132.872L564.806 131.969C565.262 132.419 565.884 132.569 566.554 132.569C567.391 132.569 567.839 132.257 567.839 131.688C567.839 131.439 567.768 131.226 567.616 131.085C567.473 130.956 567.309 130.883 566.974 130.833L566.098 130.714C565.476 130.624 565.018 130.436 564.691 130.124C564.348 129.782 564.174 129.324 564.174 128.722C564.174 127.449 565.134 126.558 566.7 126.558C567.699 126.558 568.421 126.795 569.042 127.388L568.147 128.261C567.687 127.83 567.137 127.77 566.658 127.77C565.907 127.77 565.538 128.18 565.538 128.671C565.538 128.852 565.597 129.043 565.754 129.185C565.897 129.314 566.128 129.424 566.423 129.462L567.279 129.583C567.939 129.675 568.357 129.856 568.664 130.134C569.053 130.493 569.224 131.017 569.224 131.647C569.224 133.031 568.055 133.814 566.537 133.814L566.535 133.814Z" fill="#2B2A29"/>
<path d="M573.12 127.858V133.752H571.704V127.858H569.81V126.616H575.013V127.858H573.12Z" fill="#2B2A29"/>
<path d="M579.429 133.753L579.004 132.493H576.425L575.99 133.753H574.51L577.149 126.616H578.257L580.905 133.753H579.429ZM577.739 128.723L576.819 131.317H578.625L577.739 128.723Z" fill="#2B2A29"/>
<path d="M583.715 127.858V133.752H582.299V127.858H580.406V126.616H585.609V127.858H583.715Z" fill="#2B2A29"/>
<path d="M586.467 133.752V126.616H591.243V127.858H587.883V129.534H590.744V130.774H587.883V132.509H591.243V133.752H586.467Z" fill="#2B2A29"/>
<path d="M598.606 133.753L598.177 132.493H595.602L595.167 133.753H593.687L596.327 126.616H597.435L600.083 133.753H598.608H598.606ZM596.916 128.723L595.998 131.317H597.803L596.916 128.723Z" fill="#2B2A29"/>
<path d="M603.021 133.814C602.248 133.814 601.594 133.553 601.066 133.031C600.749 132.72 600.554 132.36 600.475 131.957C600.393 131.555 600.354 130.965 600.354 130.184C600.354 129.402 600.394 128.812 600.475 128.41C600.554 128 600.749 127.649 601.066 127.337C601.594 126.819 602.248 126.558 603.021 126.558C604.415 126.558 605.443 127.358 605.688 128.812H604.251C604.102 128.201 603.713 127.799 603.031 127.799C602.644 127.799 602.34 127.918 602.127 128.171C601.832 128.479 601.767 128.8 601.767 130.184C601.767 131.567 601.831 131.889 602.127 132.201C602.34 132.45 602.644 132.569 603.031 132.569C603.713 132.569 604.102 132.167 604.251 131.555H605.688C605.444 133.009 604.406 133.814 603.021 133.814Z" fill="#2B2A29"/>
<path d="M610.77 133.753L610.344 132.493H607.765L607.33 133.753H605.85L608.49 126.616H609.598L612.247 133.753H610.771H610.77ZM609.08 128.723L608.161 131.317H609.967L609.081 128.723H609.08Z" fill="#2B2A29"/>
<path d="M617.515 133.07C617.034 133.543 616.352 133.75 615.604 133.75H612.986V126.616H615.604C616.352 126.616 617.034 126.826 617.515 127.296C618.328 128.099 618.249 129.082 618.249 130.152C618.249 131.227 618.328 132.267 617.515 133.071V133.07ZM616.526 128.298C616.282 128.009 615.956 127.859 615.469 127.859H614.398V132.507H615.469C615.956 132.507 616.282 132.358 616.526 132.066C616.791 131.744 616.833 131.236 616.833 130.151C616.833 129.069 616.791 128.62 616.526 128.298Z" fill="#2B2A29"/>
<path d="M619.356 133.752V126.616H624.13V127.858H620.77V129.534H623.632V130.774H620.77V132.509H624.13V133.752H619.356Z" fill="#2B2A29"/>
<path d="M630.327 133.752V129.594L628.941 132.3H627.985L626.588 129.594V133.752H625.175V126.616H626.57L628.463 130.475L630.344 126.616H631.741V133.752H630.327Z" fill="#2B2A29"/>
<path d="M633.076 133.75H634.489V126.616H633.076V133.75Z" fill="#2B2A29"/>
<path d="M638.278 133.814C637.505 133.814 636.85 133.553 636.323 133.031C636.007 132.72 635.813 132.36 635.733 131.957C635.651 131.555 635.611 130.965 635.611 130.184C635.611 129.402 635.651 128.812 635.733 128.41C635.813 128 636.007 127.649 636.323 127.337C636.85 126.819 637.505 126.558 638.278 126.558C639.671 126.558 640.7 127.358 640.944 128.812H639.506C639.359 128.201 638.969 127.799 638.286 127.799C637.9 127.799 637.596 127.918 637.382 128.171C637.088 128.479 637.023 128.8 637.023 130.184C637.023 131.567 637.087 131.889 637.382 132.201C637.596 132.45 637.9 132.569 638.286 132.569C638.969 132.569 639.359 132.167 639.506 131.555H640.944C640.7 133.009 639.662 133.814 638.278 133.814Z" fill="#2B2A29"/>
<path d="M646.793 127.858V133.752H645.377V127.858H643.484V126.616H648.687V127.858H646.793Z" fill="#2B2A29"/>
<path d="M653.414 133.752V130.77H650.96V133.752H649.545V126.616H650.96V129.534H653.414V126.616H654.828V133.752H653.414Z" fill="#2B2A29"/>
<path d="M656.163 133.752V126.616H660.939V127.858H657.578V129.534H660.439V130.774H657.578V132.509H660.939V133.752H656.163Z" fill="#2B2A29"/>
<path d="M666.438 133.753L666.009 132.493H663.434L662.999 133.753H661.519L664.155 126.616H665.266L667.915 133.753H666.438ZM664.748 128.723L663.83 131.317H665.636L664.749 128.723H664.748Z" fill="#2B2A29"/>
<path d="M670.725 127.858V133.752H669.311V127.858H667.416V126.616H672.619V127.858H670.725Z" fill="#2B2A29"/>
<path d="M677.324 133.753L675.912 130.907H674.893V133.753H673.477V126.616H676.318C677.793 126.616 678.67 127.61 678.67 128.803C678.67 129.805 678.049 130.424 677.346 130.676L678.962 133.753H677.324ZM676.226 127.859H674.893V129.745H676.226C676.843 129.745 677.252 129.354 677.252 128.803C677.252 128.251 676.843 127.859 676.226 127.859Z" fill="#2B2A29"/>
<path d="M679.836 133.752V126.616H684.613V127.858H681.252V129.534H684.114V130.774H681.252V132.509H684.613V133.752H679.836Z" fill="#2B2A29"/>
<path d="M805.494 137.488H560.503V112.507H805.494V137.488ZM809 109H805.494H560.507H557V112.507V137.488V141H560.507H805.494H809V137.488V112.507V109Z" fill="#0B7870"/>
<path d="M805.496 6.65962V102.498H560.503V77.5555L805.496 6.65962ZM809 2L804.519 3.29556L559.53 74.1938L557 74.9224V77.5555V102.498V106H560.503H805.496H809V102.498V6.65962V2Z" fill="#0B7870"/>
</svg>
